<?xml version="1.0" standalone="no"?>
<!DOCTYPE svg PUBLIC "-//W3C//DTD SVG 20010904//EN"
 "http://www.w3.org/TR/2001/REC-SVG-20010904/DTD/svg10.dtd">
<svg version="1.0" xmlns="http://www.w3.org/2000/svg"
 width="512.000000pt" height="512.000000pt" viewBox="0 0 512.000000 512.000000"
 preserveAspectRatio="xMidYMid meet">
<metadata>
Created by potrace 1.14, written by Peter Selinger 2001-2017
</metadata>
<g transform="translate(0.000000,512.000000) scale(0.100000,-0.100000)"
fill="#000000" stroke="none">
<path d="M3070 4305 c-184 -184 -337 -335 -340 -335 -3 0 -29 18 -58 39 -77
58 -150 83 -259 89 -107 5 -195 -16 -278 -69 -28 -17 -266 -247 -532 -512
l-483 -482 0 -595 0 -595 -255 -255 -255 -255 425 -425 425 -425 253 253 252
252 595 0 596 0 490 493 c466 467 493 496 528 567 83 172 63 365 -52 515 l-31
40 337 337 337 338 -170 170 -170 170 -337 -337 -338 -338 -340 340 -340 340
337 337 338 338 -170 170 -170 170 -335 -335z m-3 -1357 c370 -370 673 -677
673 -683 0 -5 -177 -187 -392 -402 l-393 -393 -595 0 -595 0 -150 -150 c-82
-82 -154 -150 -160 -150 -6 0 -46 36 -90 80 l-80 80 158 158 157 157 0 595 0
595 392 392 c216 216 395 393 398 393 3 0 308 -303 677 -672z"/>
</g>
</svg>
